<svg xmlns="http://www.w3.org/2000/svg" xmlns:xlink="http://www.w3.org/1999/xlink" width="1280" zoomAndPan="magnify" viewBox="0 0 960 374.999991" height="500" preserveAspectRatio="xMidYMid meet" version="1.0"><defs><g/><clipPath id="4d76981069"><path d="M 227.753906 17.933594 L 687.382812 17.933594 L 687.382812 298.433594 L 227.753906 298.433594 Z M 227.753906 17.933594 " clip-rule="nonzero"/></clipPath></defs><rect x="-96" width="1152" fill="#ffffff" y="-37.499999" height="449.999989" fill-opacity="1"/><rect x="-96" width="1152" fill="#ffffff" y="-37.499999" height="449.999989" fill-opacity="1"/><g clip-path="url(#4d76981069)"><path fill="#131212" d="M 682.210938 214.121094 C 682.035156 217.707031 681.886719 224.207031 681.878906 228.566406 C 681.867188 237.660156 681.386719 247.414062 680.605469 254.285156 C 679.277344 266.078125 676.40625 283.828125 675.226562 287.582031 C 674.679688 289.320312 674.777344 288.511719 676.066406 280.609375 C 679.410156 260.078125 680.054688 251.210938 680.855469 214.824219 C 681.308594 194.292969 681.109375 177.011719 680.304688 167.085938 C 679.179688 153.230469 678.9375 142.835938 679.410156 128.152344 C 679.839844 114.65625 679.699219 72.667969 679.195312 63.722656 C 679.058594 61.371094 679.109375 60.144531 679.335938 60.285156 C 679.523438 60.402344 679.757812 60.933594 679.851562 61.46875 C 679.945312 62.003906 680.601562 65.21875 681.316406 68.609375 C 682.53125 74.40625 682.628906 75.339844 682.933594 84.289062 C 683.109375 89.519531 683.414062 96.019531 683.609375 98.734375 C 685.550781 125.671875 685.222656 152.820312 682.210938 214.121094 Z M 673.601562 291.992188 C 672.226562 294.710938 671.585938 294.976562 666.410156 294.980469 C 663.984375 294.980469 657.332031 294.785156 651.628906 294.546875 C 643.863281 294.222656 634.050781 294.195312 612.597656 294.433594 C 579.78125 294.796875 572.210938 294.632812 549.476562 293.046875 C 536.375 292.136719 526.867188 291.964844 480.53125 291.796875 C 429.683594 291.617188 424.363281 291.691406 392.117188 293.035156 C 383.125 293.410156 373.15625 293.8125 369.964844 293.929688 C 366.773438 294.046875 360.523438 294.363281 356.074219 294.636719 C 351.625 294.910156 344.742188 295.328125 340.777344 295.570312 C 330.722656 296.179688 288.636719 296.1875 281.175781 295.582031 C 265.050781 294.28125 257.289062 293.375 254.539062 292.472656 C 251.5625 291.503906 251.328125 290.375 252.515625 282.824219 C 252.898438 280.402344 253.214844 278.28125 253.214844 278.105469 C 253.21875 277.933594 253.871094 278.535156 254.667969 279.441406 C 256.949219 282.039062 257.675781 282.304688 262.363281 282.25 C 264.863281 282.21875 268.683594 281.832031 272.382812 281.234375 C 279.453125 280.085938 278.996094 280.097656 329.171875 279.8125 C 348.03125 279.703125 364.566406 279.546875 365.921875 279.460938 C 367.273438 279.378906 376.453125 279.226562 386.316406 279.117188 C 396.179688 279.011719 410.421875 278.675781 417.964844 278.371094 C 446.253906 277.230469 471.089844 276.9375 488.644531 277.535156 C 494.058594 277.722656 503.789062 278.039062 510.269531 278.238281 C 537.351562 279.082031 566.421875 280.359375 578.664062 281.25 C 587.96875 281.929688 594.824219 282.722656 610.308594 284.925781 C 648.832031 290.410156 653.136719 290.957031 663.066406 291.664062 C 669.9375 292.152344 671.925781 291.964844 673.429688 290.699219 C 674.714844 289.617188 674.730469 289.757812 673.601562 291.992188 Z M 249.699219 250.234375 C 248.46875 236.667969 248.582031 237.597656 247.050781 227.863281 C 243.988281 208.414062 243.257812 196.660156 244.210938 182.234375 C 245.71875 159.464844 245.707031 149.15625 244.160156 133.085938 C 243.671875 128.011719 243.558594 122.582031 243.535156 102.433594 C 243.503906 76.566406 243.519531 76.867188 241.789062 68.390625 C 241.058594 64.820312 239.507812 48.636719 239.507812 44.582031 C 239.503906 42.238281 239.644531 41.078125 239.945312 40.882812 C 240.332031 40.632812 245.085938 39.890625 247.113281 39.765625 C 247.847656 39.71875 247.859375 39.832031 247.914062 45.761719 C 247.941406 49.085938 247.804688 55.148438 247.613281 59.238281 C 247.1875 68.125 246.683594 112.914062 246.789062 132.203125 C 246.886719 150.324219 247.40625 156.773438 250.585938 179.59375 C 252.273438 191.667969 253.875 207.28125 254.355469 216.332031 C 254.886719 226.332031 254.3125 241.765625 252.890625 255.820312 C 252.324219 261.410156 251.789062 266.054688 251.703125 266.144531 C 251.355469 266.488281 250.707031 261.320312 249.699219 250.234375 Z M 248.675781 272.257812 C 245.667969 272.257812 241.417969 271.316406 239.359375 270.199219 C 238.039062 269.480469 237.457031 268.886719 236.898438 267.675781 C 236.214844 266.199219 236.164062 265.46875 236.164062 257.105469 C 236.164062 252.164062 236.386719 239.324219 236.660156 228.566406 C 237.195312 207.390625 237.066406 193.738281 236.175781 176.949219 C 234.195312 139.648438 233.289062 125.769531 231.757812 109.339844 C 230.738281 98.410156 230.273438 88.386719 230.226562 76.359375 C 230.191406 66.640625 230.265625 65.175781 230.988281 61.035156 C 232.597656 51.820312 233.988281 46.921875 235.917969 43.632812 L 236.867188 42.007812 L 237.121094 46.046875 C 237.257812 48.269531 237.707031 53.5 238.109375 57.675781 C 238.515625 61.847656 239.355469 68.035156 239.96875 71.429688 L 241.089844 77.59375 L 241.105469 101.90625 C 241.117188 121.855469 241.222656 127.273438 241.703125 132.125 C 242.027344 135.375 242.480469 142.066406 242.71875 146.996094 C 243.179688 156.625 242.890625 167.574219 241.753906 183.316406 C 241.382812 188.449219 241.257812 193.234375 241.386719 197.5625 C 241.566406 203.714844 242.574219 214.921875 243.363281 219.582031 C 244.945312 228.90625 246.25 238.175781 246.707031 243.363281 C 248.375 262.253906 248.800781 265.320312 250.609375 271.460938 C 250.832031 272.222656 250.753906 272.257812 248.675781 272.257812 Z M 249.222656 114.589844 C 249.386719 101.410156 249.472656 86.347656 249.414062 81.117188 C 249.351562 75.824219 249.546875 66.523438 249.851562 60.152344 C 250.15625 53.855469 250.402344 46.695312 250.40625 44.238281 C 250.40625 41.015625 250.53125 39.71875 250.847656 39.570312 C 251.519531 39.253906 271.679688 39.648438 284.691406 40.234375 C 291.074219 40.519531 298.828125 40.917969 301.921875 41.117188 C 329.609375 42.902344 343.480469 43.253906 385.300781 43.226562 C 405.777344 43.214844 429.578125 43.371094 438.183594 43.570312 C 446.789062 43.769531 465.222656 43.9375 479.148438 43.941406 C 516.101562 43.953125 529.855469 44.375 543.5 45.90625 C 565.402344 48.363281 573.359375 48.804688 616.113281 49.925781 C 630.167969 50.296875 638.359375 50.730469 646.707031 51.542969 C 652.3125 52.09375 662.738281 53.296875 665.078125 53.664062 L 666.394531 53.875 L 666.398438 58.160156 C 666.410156 66.664062 667.863281 83.492188 669.199219 90.453125 C 670.246094 95.902344 671.5625 104.679688 672.265625 110.886719 C 672.792969 115.550781 672.882812 119.773438 672.890625 139.777344 C 672.902344 165.660156 672.945312 165 670.386719 180.472656 C 668.25 193.414062 667.863281 196.394531 666.558594 210.070312 C 664.984375 226.589844 664.710938 232.398438 665.03125 243.1875 C 665.40625 255.882812 665.390625 272.789062 665.003906 273.804688 C 664.746094 274.480469 664.179688 274.84375 662.632812 275.324219 C 658.320312 276.660156 628.3125 275.769531 606.441406 273.660156 C 586.234375 271.710938 553.175781 269.289062 541.386719 268.894531 C 530.984375 268.542969 444.03125 269.371094 429.566406 269.957031 C 422.410156 270.25 404.371094 270.644531 389.480469 270.835938 C 362.683594 271.183594 354.847656 271.417969 337.085938 272.417969 C 316.359375 273.582031 309.152344 273.804688 291.726562 273.820312 C 276.910156 273.835938 272.214844 273.722656 267 273.222656 C 263.460938 272.882812 259.042969 272.609375 257.191406 272.609375 L 253.816406 272.609375 L 254.039062 268.996094 C 254.160156 267.011719 254.652344 261.5 255.136719 256.753906 C 256.433594 243.960938 256.738281 238.054688 256.734375 225.753906 C 256.730469 212.21875 255.519531 197.335938 253.015625 180.121094 C 251.308594 168.390625 249.695312 153.582031 249.316406 146.121094 C 249.046875 140.894531 249.019531 131.117188 249.222656 114.589844 Z M 252.523438 27.722656 C 253.652344 25.613281 258.289062 25.34375 273.089844 26.539062 C 276.570312 26.820312 282.425781 27.355469 286.097656 27.730469 C 289.773438 28.109375 297.527344 28.757812 303.328125 29.175781 C 327.351562 30.902344 325.695312 30.746094 323.371094 31.027344 C 319.242188 31.527344 294.058594 33.351562 286.449219 33.703125 C 282.195312 33.898438 273.570312 34.222656 267.285156 34.425781 C 261 34.628906 254.789062 34.886719 253.484375 35 C 251.121094 35.207031 251.109375 35.207031 251.109375 34.316406 C 251.109375 33.089844 252.085938 28.546875 252.523438 27.722656 Z M 307.460938 38.914062 C 306.832031 38.996094 305.804688 38.996094 305.175781 38.914062 C 304.546875 38.839844 305.058594 38.773438 306.316406 38.773438 C 307.574219 38.773438 308.089844 38.839844 307.460938 38.914062 Z M 347.65625 32.007812 C 348.828125 31.988281 354.367188 32.207031 359.964844 32.496094 C 372.859375 33.167969 380.828125 33.640625 386.84375 34.085938 C 396.773438 34.820312 407.855469 35.488281 410.117188 35.488281 C 411.414062 35.488281 412.570312 35.648438 412.6875 35.839844 C 412.832031 36.070312 410.84375 36.195312 406.996094 36.203125 C 403.746094 36.203125 393.171875 36.371094 383.503906 36.574219 C 350.835938 37.25 301.328125 36.84375 295.460938 35.847656 L 293.835938 35.574219 L 295.457031 35.53125 C 296.351562 35.507812 303.234375 35 310.753906 34.40625 C 324.078125 33.347656 343.375 32.097656 347.65625 32.007812 Z M 383.941406 30.417969 C 393.019531 30.113281 402.492188 29.546875 428.6875 27.757812 C 448.382812 26.40625 458.058594 25.597656 477.390625 23.679688 C 489.433594 22.488281 498.503906 21.847656 509.917969 21.378906 C 531.695312 20.488281 584.558594 20.085938 599.058594 20.699219 C 612.414062 21.265625 631.65625 22.558594 648.640625 24.03125 C 654.054688 24.5 660.050781 24.988281 661.96875 25.113281 C 664.976562 25.316406 665.558594 25.457031 666.273438 26.175781 C 666.726562 26.628906 667.101562 27.351562 667.101562 27.773438 C 667.101562 28.519531 667.015625 28.535156 664.375 28.320312 C 652.539062 27.332031 641.246094 27.273438 624.726562 28.113281 C 609.027344 28.90625 588.921875 29.546875 570.046875 29.847656 C 550.875 30.152344 540.824219 30.503906 529.257812 31.265625 C 522.175781 31.734375 504.554688 32.523438 478.269531 33.554688 C 454.640625 34.480469 437.753906 34.652344 426.753906 34.078125 C 405.316406 32.957031 398.71875 32.578125 390.007812 31.953125 C 384.691406 31.574219 379.507812 31.261719 378.492188 31.261719 C 377.476562 31.261719 376.644531 31.128906 376.644531 30.960938 C 376.644531 30.796875 379.929688 30.550781 383.941406 30.417969 Z M 511.207031 41.597656 C 511.40625 41.792969 451.671875 41.429688 431.851562 41.113281 C 418.796875 40.90625 393.71875 40.78125 376.117188 40.832031 C 353.660156 40.898438 341.289062 40.792969 334.625 40.46875 C 306.765625 39.125 306.332031 39.191406 343.0625 39.183594 C 379.398438 39.179688 420.816406 38.5 438.535156 37.617188 C 441.726562 37.457031 446.386719 37.304688 448.894531 37.273438 C 451.402344 37.242188 453.519531 37.152344 453.597656 37.074219 C 453.675781 36.992188 454.949219 36.996094 456.421875 37.082031 C 457.898438 37.167969 461.480469 37.320312 464.378906 37.421875 C 468.738281 37.570312 481.960938 38.507812 489.34375 39.191406 C 490.3125 39.28125 493.003906 39.519531 495.324219 39.71875 C 499.1875 40.054688 511.066406 41.460938 511.207031 41.597656 Z M 666.394531 43.945312 L 666.394531 47.644531 C 666.394531 50.046875 666.265625 51.34375 666.015625 51.34375 C 665.8125 51.34375 663.078125 51.03125 659.953125 50.648438 C 641.183594 48.355469 636.839844 48.117188 587.980469 46.75 C 580.921875 46.554688 571.585938 46.109375 567.234375 45.765625 L 559.324219 45.136719 L 563.71875 44.890625 C 575.796875 44.207031 586.558594 44.050781 624.816406 44 Z M 667.363281 31.058594 C 667.421875 31.117188 667.269531 33.496094 667.019531 36.347656 L 666.570312 41.53125 L 629.019531 41.492188 C 599.867188 41.464844 588.304688 41.582031 577.328125 42.027344 C 567.371094 42.429688 558.566406 42.550781 547.542969 42.4375 C 530.414062 42.257812 533.109375 42.496094 513.082031 39.410156 C 506.347656 38.375 499.746094 37.636719 489.34375 36.757812 L 479.851562 35.957031 L 483.894531 35.726562 C 486.121094 35.597656 495.613281 35.171875 504.992188 34.777344 C 514.375 34.382812 524.5 33.90625 527.5 33.714844 C 541.984375 32.808594 547.078125 32.628906 566.355469 32.324219 C 577.765625 32.144531 591.136719 31.835938 596.070312 31.632812 C 621.847656 30.589844 631.878906 30.15625 632.992188 30.046875 C 635.609375 29.785156 659.054688 30.179688 663.046875 30.558594 C 665.363281 30.773438 667.304688 31 667.363281 31.058594 Z M 669.632812 54.285156 C 670.269531 54.398438 672.152344 54.59375 673.8125 54.722656 L 676.835938 54.957031 L 677.132812 66.804688 C 677.300781 73.320312 677.363281 89.351562 677.285156 102.433594 C 677.011719 147.085938 677.109375 156.894531 677.945312 167.660156 C 678.8125 178.789062 678.925781 193.785156 678.355469 221.695312 C 677.832031 247.132812 677.183594 256.828125 674.988281 272.078125 C 673.335938 283.550781 672.40625 288.378906 671.730469 289.058594 C 671.238281 289.550781 670.425781 289.59375 665.53125 289.398438 C 656.886719 289.058594 649.375 288.128906 611.015625 282.644531 C 588.976562 279.496094 582.257812 278.875 557.5625 277.726562 C 540.832031 276.949219 530.59375 276.542969 511.675781 275.921875 C 502.292969 275.613281 490.980469 275.234375 486.53125 275.078125 C 477.140625 274.75 445.78125 274.957031 433.257812 275.433594 C 411.1875 276.269531 402.34375 276.523438 381.394531 276.902344 C 369.015625 277.128906 340.769531 277.417969 318.625 277.546875 C 277.964844 277.78125 277.183594 277.808594 270.300781 279.144531 C 268.738281 279.449219 265.710938 279.789062 263.574219 279.902344 C 258.746094 280.152344 257.730469 279.769531 255.890625 276.996094 C 255.195312 275.945312 254.625 274.992188 254.625 274.875 C 254.625 274.617188 259.644531 274.917969 268.515625 275.710938 C 280.550781 276.777344 305.222656 276.472656 334.625 274.886719 C 339.847656 274.605469 347.285156 274.214844 351.152344 274.015625 C 355.019531 273.816406 369.894531 273.503906 384.207031 273.316406 C 408.3125 273 415.210938 272.832031 441.699219 271.898438 C 447.015625 271.714844 461.574219 271.554688 474.050781 271.550781 C 486.523438 271.546875 504.246094 271.382812 513.433594 271.1875 C 539.113281 270.632812 553.316406 271.378906 606.96875 276.105469 C 626.609375 277.835938 649.460938 278.820312 657.253906 278.269531 C 662.746094 277.886719 664.621094 277.492188 666.125 276.425781 C 667.925781 275.140625 667.949219 274.742188 667.496094 252.085938 C 667.054688 229.875 667.054688 229.703125 668.683594 212.890625 C 669.972656 199.648438 670.8125 192.871094 672.371094 183.117188 C 675.476562 163.683594 675.707031 160.179688 675.414062 135.902344 C 675.144531 113.582031 674.722656 108.265625 671.847656 91.335938 C 670.082031 80.921875 669.554688 75.410156 668.683594 58.261719 L 668.472656 54.078125 Z M 676.945312 52.242188 C 676.945312 52.527344 671.894531 52.238281 670.003906 51.84375 L 668.859375 51.609375 L 668.859375 44.296875 L 671.675781 44.296875 C 674.273438 44.296875 674.523438 44.359375 674.816406 45.089844 C 675.222656 46.117188 676.945312 51.894531 676.945312 52.242188 Z M 668.980469 40.460938 C 669.085938 39.761719 669.285156 37.40625 669.421875 35.226562 L 669.664062 31.261719 L 670.589844 31.261719 C 671.097656 31.261719 673.492188 31.5 675.898438 31.789062 C 678.3125 32.078125 680.8125 32.402344 681.453125 32.511719 L 682.617188 32.710938 L 681.867188 33.835938 C 680.457031 35.960938 679.097656 39.105469 678.316406 42.070312 C 677.5625 44.929688 677.515625 45.003906 677.117188 44.054688 C 676.414062 42.378906 675.761719 42.097656 672.152344 41.910156 L 668.785156 41.730469 Z M 685.894531 98.375 C 685.613281 94.105469 685.386719 88.195312 685.386719 85.238281 C 685.386719 82.277344 685.214844 78.316406 685.007812 76.433594 C 684.582031 72.570312 682.214844 60.773438 681.191406 57.390625 C 680.8125 56.164062 680.59375 54.929688 680.707031 54.648438 C 680.8125 54.367188 680.601562 53.808594 680.242188 53.40625 C 679.691406 52.792969 679.59375 52.148438 679.628906 49.453125 C 679.707031 44.214844 681.546875 38.335938 684.226562 34.765625 C 686.160156 32.179688 686.121094 31.132812 684.0625 30.585938 C 683.03125 30.308594 670.988281 28.796875 669.824219 28.796875 C 669.679688 28.796875 669.558594 28.4375 669.554688 28.003906 C 669.542969 26.726562 668.285156 24.320312 667.296875 23.667969 C 666.597656 23.207031 664.835938 22.957031 659.796875 22.605469 C 656.171875 22.351562 649.648438 21.820312 645.296875 21.425781 C 613.214844 18.519531 584.78125 17.476562 555.101562 18.117188 C 552.78125 18.167969 541.785156 18.371094 530.664062 18.574219 C 504.019531 19.054688 495.082031 19.546875 472.996094 21.75 C 451.773438 23.867188 412.273438 26.78125 392.117188 27.722656 C 351.761719 29.601562 350.867188 29.628906 340.601562 29.175781 C 335.1875 28.941406 327.511719 28.527344 323.546875 28.253906 C 305.382812 27.007812 291.027344 25.894531 283.109375 25.105469 C 264.398438 23.246094 255.566406 23.035156 252.769531 24.375 C 250.871094 25.28125 249.886719 27.21875 249.15625 31.464844 L 248.546875 35.011719 L 243.402344 35.417969 C 237.582031 35.878906 235.992188 36.28125 235.992188 37.296875 C 235.992188 37.671875 236.230469 38.070312 236.523438 38.183594 C 236.941406 38.34375 236.753906 38.71875 235.664062 39.90625 C 232.40625 43.449219 230.421875 49.640625 228.382812 62.617188 C 227.199219 70.15625 227.714844 90.253906 229.652344 112.121094 C 230.605469 122.898438 231.507812 134.796875 231.949219 142.421875 C 232.703125 155.480469 233.167969 163.820312 233.339844 167.4375 C 233.453125 169.761719 233.78125 176.226562 234.074219 181.796875 C 234.808594 195.742188 234.804688 214.894531 234.074219 240.671875 C 233.417969 263.75 233.488281 266.257812 234.902344 269.011719 C 236.589844 272.292969 239.972656 273.847656 246.8125 274.472656 L 251.128906 274.863281 L 250.914062 276.996094 C 250.796875 278.167969 250.476562 280.472656 250.210938 282.121094 C 249.230469 288.109375 249.191406 289.929688 249.996094 291.757812 C 251.324219 294.765625 254.117188 295.507812 269.394531 296.894531 C 286.410156 298.445312 288.027344 298.503906 309.660156 298.429688 C 330.316406 298.359375 337.449219 298.144531 354.140625 297.089844 C 358.6875 296.804688 368.574219 296.328125 376.117188 296.035156 C 383.660156 295.742188 395.292969 295.265625 401.964844 294.976562 C 424.503906 293.996094 442.402344 293.816406 488.816406 294.105469 C 536.203125 294.402344 536.640625 294.414062 559.5 296.125 C 566.714844 296.664062 573.082031 296.742188 609.78125 296.742188 C 632.894531 296.742188 656.078125 296.886719 661.296875 297.0625 C 670.5 297.371094 670.847656 297.355469 672.441406 296.652344 C 676.332031 294.929688 678.1875 288.835938 681.128906 268.203125 C 683.59375 250.863281 684.320312 240.847656 684.335938 223.808594 C 684.339844 219.546875 684.492188 213.757812 684.675781 210.945312 C 684.855469 208.132812 685.257812 199.332031 685.558594 191.390625 C 685.863281 183.449219 686.257812 173.699219 686.441406 169.726562 C 686.621094 165.753906 686.957031 155.371094 687.1875 146.648438 C 687.625 130.09375 687.386719 121.15625 685.894531 98.375 " fill-opacity="1" fill-rule="nonzero"/></g><g fill="#ff8d55" fill-opacity="0.4"><g transform="translate(292.294, 162.811999)"><g><path d="M 44.546875 0 L 57.367188 0 L 38.050781 -65.585938 L 38.050781 -65.75 L 25.148438 -65.75 L 5.753906 0 L 18.65625 0 L 23.503906 -16.355469 L 39.695312 -16.355469 Z M 27.121094 -28.601562 L 31.640625 -43.886719 L 36.078125 -28.601562 Z M 27.121094 -28.601562 "/></g></g></g><g fill="#ff8d55" fill-opacity="0.4"><g transform="translate(355.408367, 162.811999)"><g><path d="M 57.039062 -46.929688 C 57.039062 -57.367188 50.875 -65.75 34.023438 -65.75 L 5.753906 -65.75 L 5.753906 0 L 34.023438 0 C 51.367188 0 57.039062 -11.175781 57.039062 -21.53125 C 57.039062 -26.382812 55.722656 -30.820312 52.597656 -34.191406 C 55.804688 -37.476562 57.039062 -41.996094 57.039062 -46.929688 Z M 18.082031 -53.503906 L 38.300781 -53.503906 C 42.160156 -53.503906 44.792969 -50.132812 44.792969 -46.929688 C 44.792969 -44.132812 42.574219 -40.355469 38.300781 -40.355469 L 18.082031 -40.355469 Z M 37.066406 -12.328125 L 18.082031 -12.328125 L 18.082031 -28.109375 L 37.066406 -28.109375 C 40.847656 -28.109375 44.792969 -25.640625 44.792969 -20.21875 C 44.792969 -14.792969 40.683594 -12.328125 37.066406 -12.328125 Z M 37.066406 -12.328125 "/></g></g></g><g fill="#ff8d55" fill-opacity="0.4"><g transform="translate(418.194022, 162.811999)"><g><path d="M 36.492188 -66.570312 C 17.917969 -66.570312 2.875 -51.53125 2.875 -32.957031 C 2.875 -14.382812 17.917969 0.65625 36.492188 0.65625 C 55.066406 0.65625 70.105469 -14.382812 70.105469 -32.957031 C 70.105469 -51.53125 55.066406 -66.570312 36.492188 -66.570312 Z M 36.492188 -53.996094 C 48.160156 -53.996094 56.378906 -44.546875 56.378906 -32.957031 C 56.378906 -21.367188 48.160156 -11.917969 36.492188 -11.917969 C 24.902344 -11.917969 16.683594 -21.367188 16.683594 -32.957031 C 16.683594 -44.546875 24.902344 -53.996094 36.492188 -53.996094 Z M 36.492188 -53.996094 "/></g></g></g><g fill="#ff8d55" fill-opacity="0.4"><g transform="translate(491.170002, 162.811999)"><g><path d="M 43.558594 -65.75 L 43.558594 -22.765625 C 43.558594 -16.109375 38.214844 -10.765625 31.640625 -10.765625 L 30 -10.765625 C 23.421875 -10.765625 18.082031 -16.109375 18.082031 -22.765625 L 18.082031 -65.75 L 5.753906 -65.75 L 5.753906 -22.765625 C 5.753906 -9.453125 16.683594 1.480469 30 1.480469 L 31.640625 1.480469 C 44.957031 1.480469 55.804688 -9.453125 55.804688 -22.765625 L 55.804688 -65.75 Z M 43.558594 -65.75 "/></g></g></g><g fill="#ff8d55" fill-opacity="0.4"><g transform="translate(552.722949, 162.811999)"><g><path d="M 55.148438 -65.75 L 5.753906 -65.75 L 5.753906 -53.503906 L 24.328125 -53.503906 L 24.328125 0 L 36.574219 0 L 36.574219 -53.503906 L 55.148438 -53.503906 Z M 55.148438 -65.75 "/></g></g></g><g fill="#e2a165" fill-opacity="1"><g transform="translate(297.089666, 160.971115)"><g><path d="M 44.546875 0 L 57.367188 0 L 38.050781 -65.585938 L 38.050781 -65.75 L 25.148438 -65.75 L 5.753906 0 L 18.65625 0 L 23.503906 -16.355469 L 39.695312 -16.355469 Z M 27.121094 -28.601562 L 31.640625 -43.886719 L 36.078125 -28.601562 Z M 27.121094 -28.601562 "/></g></g></g><g fill="#e2a165" fill-opacity="1"><g transform="translate(360.204033, 160.971115)"><g><path d="M 57.039062 -46.929688 C 57.039062 -57.367188 50.875 -65.75 34.023438 -65.75 L 5.753906 -65.75 L 5.753906 0 L 34.023438 0 C 51.367188 0 57.039062 -11.175781 57.039062 -21.53125 C 57.039062 -26.382812 55.722656 -30.820312 52.597656 -34.191406 C 55.804688 -37.476562 57.039062 -41.996094 57.039062 -46.929688 Z M 18.082031 -53.503906 L 38.300781 -53.503906 C 42.160156 -53.503906 44.792969 -50.132812 44.792969 -46.929688 C 44.792969 -44.132812 42.574219 -40.355469 38.300781 -40.355469 L 18.082031 -40.355469 Z M 37.066406 -12.328125 L 18.082031 -12.328125 L 18.082031 -28.109375 L 37.066406 -28.109375 C 40.847656 -28.109375 44.792969 -25.640625 44.792969 -20.21875 C 44.792969 -14.792969 40.683594 -12.328125 37.066406 -12.328125 Z M 37.066406 -12.328125 "/></g></g></g><g fill="#e2a165" fill-opacity="1"><g transform="translate(422.989687, 160.971115)"><g><path d="M 36.492188 -66.570312 C 17.917969 -66.570312 2.875 -51.53125 2.875 -32.957031 C 2.875 -14.382812 17.917969 0.65625 36.492188 0.65625 C 55.066406 0.65625 70.105469 -14.382812 70.105469 -32.957031 C 70.105469 -51.53125 55.066406 -66.570312 36.492188 -66.570312 Z M 36.492188 -53.996094 C 48.160156 -53.996094 56.378906 -44.546875 56.378906 -32.957031 C 56.378906 -21.367188 48.160156 -11.917969 36.492188 -11.917969 C 24.902344 -11.917969 16.683594 -21.367188 16.683594 -32.957031 C 16.683594 -44.546875 24.902344 -53.996094 36.492188 -53.996094 Z M 36.492188 -53.996094 "/></g></g></g><g fill="#e2a165" fill-opacity="1"><g transform="translate(495.965668, 160.971115)"><g><path d="M 43.558594 -65.75 L 43.558594 -22.765625 C 43.558594 -16.109375 38.214844 -10.765625 31.640625 -10.765625 L 30 -10.765625 C 23.421875 -10.765625 18.082031 -16.109375 18.082031 -22.765625 L 18.082031 -65.75 L 5.753906 -65.75 L 5.753906 -22.765625 C 5.753906 -9.453125 16.683594 1.480469 30 1.480469 L 31.640625 1.480469 C 44.957031 1.480469 55.804688 -9.453125 55.804688 -22.765625 L 55.804688 -65.75 Z M 43.558594 -65.75 "/></g></g></g><g fill="#e2a165" fill-opacity="1"><g transform="translate(557.518615, 160.971115)"><g><path d="M 55.148438 -65.75 L 5.753906 -65.75 L 5.753906 -53.503906 L 24.328125 -53.503906 L 24.328125 0 L 36.574219 0 L 36.574219 -53.503906 L 55.148438 -53.503906 Z M 55.148438 -65.75 "/></g></g></g><g fill="#ffffff" fill-opacity="0.4"><g transform="translate(406.637624, 237.328701)"><g><path d="M 49.289062 -53.574219 L 38.304688 -53.574219 L 26.988281 -26.585938 L 15.738281 -53.574219 L 4.6875 -53.574219 L 4.6875 0 L 14.734375 0 L 14.734375 -29.597656 L 21.496094 -13.460938 L 32.480469 -13.460938 L 39.308594 -29.734375 L 39.308594 0 L 49.289062 0 Z M 49.289062 -53.574219 "/></g></g></g><g fill="#ffffff" fill-opacity="0.4"><g transform="translate(460.608917, 237.328701)"><g><path d="M 35.761719 -43.664062 L 35.761719 -53.640625 L 4.6875 -53.640625 L 4.6875 0 L 35.761719 0 L 35.761719 -9.976562 L 14.734375 -9.976562 L 14.734375 -21.898438 L 27.253906 -21.898438 L 27.253906 -31.875 L 14.734375 -31.875 L 14.734375 -43.664062 Z M 35.761719 -43.664062 "/></g></g></g><g fill="#000000" fill-opacity="1"><g transform="translate(410.545212, 235.828718)"><g><path d="M 49.289062 -53.574219 L 38.304688 -53.574219 L 26.988281 -26.585938 L 15.738281 -53.574219 L 4.6875 -53.574219 L 4.6875 0 L 14.734375 0 L 14.734375 -29.597656 L 21.496094 -13.460938 L 32.480469 -13.460938 L 39.308594 -29.734375 L 39.308594 0 L 49.289062 0 Z M 49.289062 -53.574219 "/></g></g></g><g fill="#000000" fill-opacity="1"><g transform="translate(464.516506, 235.828718)"><g><path d="M 35.761719 -43.664062 L 35.761719 -53.640625 L 4.6875 -53.640625 L 4.6875 0 L 35.761719 0 L 35.761719 -9.976562 L 14.734375 -9.976562 L 14.734375 -21.898438 L 27.253906 -21.898438 L 27.253906 -31.875 L 14.734375 -31.875 L 14.734375 -43.664062 Z M 35.761719 -43.664062 "/></g></g></g></svg>