<svg xmlns="http://www.w3.org/2000/svg" xmlns:xlink="http://www.w3.org/1999/xlink" width="120" zoomAndPan="magnify" viewBox="0 0 90 44.999999" height="60" preserveAspectRatio="xMidYMid meet" version="1.0"><defs><g/></defs><g fill="#000000" fill-opacity="1"><g transform="translate(3.129648, 27.795958)"><g><path d="M 3.261719 0 C 3.496094 0 3.648438 -0.171875 3.648438 -0.40625 L 3.648438 -0.449219 C 3.539062 -2.21875 3.496094 -3.945312 3.496094 -5.714844 C 4.328125 -5.226562 4.605469 -4.90625 9.171875 -0.917969 C 9.234375 -0.851562 9.34375 -0.808594 9.46875 -0.808594 C 9.597656 -0.808594 9.703125 -0.851562 9.789062 -0.960938 C 9.855469 -1.066406 9.898438 -1.152344 9.898438 -1.238281 C 9.898438 -1.34375 9.855469 -1.449219 9.746094 -1.558594 C 5.226562 -5.566406 4.757812 -5.972656 3.753906 -6.546875 C 7.65625 -8.617188 9.382812 -10.8125 9.382812 -12.5 C 9.382812 -14.203125 7.699219 -15.335938 4.777344 -15.335938 L 4.414062 -15.335938 C 4.308594 -15.335938 4.179688 -15.335938 4.074219 -15.3125 L 4.117188 -15.65625 C 4.136719 -15.910156 3.96875 -16.125 3.710938 -16.125 C 3.476562 -16.125 3.328125 -15.976562 3.261719 -15.742188 L 3.199219 -15.230469 C 2.539062 -15.144531 1.941406 -14.996094 1.324219 -14.800781 C 1.128906 -14.738281 1.023438 -14.566406 1.023438 -14.398438 C 1.023438 -14.332031 1.023438 -14.289062 1.046875 -14.269531 C 1.085938 -14.078125 1.214844 -13.96875 1.449219 -13.96875 C 1.515625 -13.96875 1.558594 -13.96875 1.578125 -13.992188 C 2.070312 -14.140625 2.582031 -14.269531 3.113281 -14.355469 C 2.859375 -11.921875 2.707031 -9.46875 2.667969 -7.015625 C 2.28125 -7.125 1.898438 -7.167969 1.515625 -7.167969 C 0.296875 -7.167969 -0.574219 -6.613281 -0.808594 -6.078125 C -0.851562 -5.972656 -0.875 -5.867188 -0.875 -5.78125 C -0.875 -5.375 -0.554688 -5.011719 0.0195312 -5.011719 C 0.214844 -5.011719 0.425781 -5.035156 0.660156 -5.140625 C 1.363281 -5.417969 2.027344 -5.671875 2.644531 -5.992188 C 2.644531 -4.117188 2.667969 -2.261719 2.816406 -0.382812 C 2.816406 -0.148438 2.984375 0 3.21875 0 Z M 3.519531 -7.402344 C 3.582031 -9.769531 3.734375 -12.09375 3.988281 -14.460938 C 4.117188 -14.480469 4.246094 -14.480469 4.371094 -14.480469 L 4.777344 -14.480469 C 6.484375 -14.480469 8.511719 -14.078125 8.511719 -12.433594 C 8.511719 -10.410156 5.3125 -8.339844 3.519531 -7.402344 Z M 0.0429688 -5.84375 C 0.191406 -5.992188 0.617188 -6.25 1.28125 -6.3125 C 0.320312 -5.867188 0.148438 -5.84375 0.0429688 -5.84375 Z M 0.0429688 -5.84375 "/></g></g></g><g fill="#000000" fill-opacity="1"><g transform="translate(13.024931, 27.795958)"><g><path d="M 2.238281 -2.835938 C 3.625 -2.835938 5.332031 -3.625 6.933594 -6.25 C 6.972656 -6.3125 6.996094 -6.378906 6.996094 -6.460938 C 6.996094 -6.65625 6.933594 -6.761719 6.78125 -6.824219 C 6.71875 -6.867188 6.632812 -6.890625 6.570312 -6.890625 C 6.421875 -6.890625 6.292969 -6.824219 6.207031 -6.699219 C 5.460938 -5.4375 4.648438 -4.605469 3.796875 -4.117188 C 3.304688 -3.859375 2.730469 -3.691406 2.152344 -3.691406 C 1.363281 -3.691406 0.683594 -4.03125 0.683594 -4.949219 C 0.683594 -5.054688 0.703125 -5.160156 0.726562 -5.3125 C 2.152344 -5.417969 3.839844 -6.460938 3.839844 -7.59375 C 3.839844 -8.210938 3.371094 -8.703125 2.6875 -8.703125 C 2.261719 -8.703125 1.75 -8.511719 1.214844 -8 C 0.382812 -7.210938 -0.148438 -5.992188 -0.148438 -4.949219 C -0.148438 -3.816406 0.511719 -2.835938 2.238281 -2.835938 Z M 1.023438 -6.226562 C 1.601562 -7.421875 2.304688 -7.847656 2.707031 -7.847656 C 2.859375 -7.847656 2.945312 -7.804688 2.964844 -7.699219 C 3.070312 -7.210938 2.070312 -6.398438 1.023438 -6.226562 Z M 1.023438 -6.226562 "/></g></g></g><g fill="#000000" fill-opacity="1"><g transform="translate(18.953568, 27.795958)"><g><path d="M 6.3125 0 C 6.546875 -0.0195312 6.699219 -0.191406 6.699219 -0.425781 L 6.699219 -0.46875 C 6.421875 -2.964844 6.3125 -6.101562 6.3125 -8.832031 L 6.3125 -10.109375 C 6.589844 -11.242188 7.039062 -13.222656 7.039062 -14.246094 C 7.039062 -14.675781 6.972656 -14.953125 6.847656 -15.101562 C 6.738281 -15.25 6.570312 -15.335938 6.378906 -15.335938 C 6.226562 -15.335938 6.101562 -15.273438 6.015625 -15.164062 C 5.523438 -14.609375 5.460938 -11.089844 5.460938 -10.214844 C 4.925781 -7.976562 4.160156 -5.84375 2.367188 -4.246094 C 1.941406 -3.859375 1.578125 -3.667969 1.257812 -3.667969 C 0.808594 -3.667969 0.574219 -4.09375 0.574219 -4.691406 C 0.574219 -5.992188 1.640625 -7.933594 3.945312 -7.871094 C 4.179688 -7.847656 4.371094 -8.039062 4.371094 -8.277344 C 4.394531 -8.511719 4.203125 -8.703125 3.96875 -8.722656 C 1.195312 -8.789062 -0.277344 -6.484375 -0.277344 -4.691406 C -0.277344 -3.667969 0.234375 -2.835938 1.28125 -2.835938 C 2.984375 -2.835938 4.800781 -5.695312 5.460938 -7.316406 C 5.523438 -4.757812 5.609375 -2.324219 5.84375 -0.382812 C 5.867188 -0.128906 6.015625 0 6.269531 0 Z M 6.3125 0 "/></g></g></g><g fill="#000000" fill-opacity="1"><g transform="translate(26.69492, 27.795958)"><g><path d="M 4.351562 -2.921875 C 5.824219 -2.921875 6.269531 -5.011719 6.335938 -6.460938 C 6.824219 -5.949219 7.359375 -5.652344 7.976562 -5.652344 C 8.445312 -5.652344 8.9375 -5.800781 9.425781 -6.121094 C 9.578125 -6.183594 9.640625 -6.292969 9.640625 -6.484375 C 9.640625 -6.546875 9.621094 -6.632812 9.578125 -6.699219 C 9.492188 -6.847656 9.363281 -6.910156 9.214844 -6.910156 C 9.109375 -6.910156 9.042969 -6.890625 8.980469 -6.847656 C 8.617188 -6.613281 8.277344 -6.503906 7.976562 -6.503906 C 7.144531 -6.503906 6.71875 -7.359375 6.398438 -7.804688 C 6.269531 -7.957031 6.144531 -8.019531 5.992188 -8.019531 C 5.929688 -8.019531 5.867188 -8.019531 5.84375 -8 C 5.628906 -7.933594 5.523438 -7.765625 5.503906 -7.488281 L 5.503906 -7.210938 C 5.503906 -6.335938 5.332031 -3.773438 4.371094 -3.773438 C 3.648438 -3.773438 3.519531 -5.226562 3.519531 -6.3125 C 3.519531 -6.675781 3.539062 -6.996094 3.539062 -7.230469 C 3.5625 -7.464844 3.371094 -7.679688 3.113281 -7.679688 C 2.921875 -7.679688 2.773438 -7.59375 2.707031 -7.402344 C 2.429688 -6.65625 1.769531 -4.691406 1.238281 -4.09375 C 1.085938 -4.414062 1.046875 -4.90625 1.046875 -5.4375 C 1.046875 -6.398438 1.195312 -7.488281 1.429688 -8.148438 C 1.492188 -8.425781 1.40625 -8.59375 1.152344 -8.703125 C 0.917969 -8.765625 0.683594 -8.660156 0.617188 -8.425781 C 0.382812 -7.742188 0.191406 -6.546875 0.191406 -5.460938 C 0.191406 -4.265625 0.449219 -3.15625 1.214844 -3.15625 C 1.917969 -3.15625 2.453125 -4.371094 2.730469 -5.035156 C 2.902344 -3.945312 3.261719 -2.921875 4.351562 -2.921875 Z M 4.351562 -2.921875 "/></g></g></g><g fill="#000000" fill-opacity="1"><g transform="translate(35.523902, 27.795958)"><g><path d="M -0.0625 -3.027344 C 0.128906 -2.902344 0.339844 -2.835938 0.574219 -2.835938 C 1.363281 -2.835938 2.28125 -3.753906 2.773438 -4.542969 C 2.707031 -3.539062 3.179688 -2.835938 3.925781 -2.835938 C 4.777344 -2.835938 6.015625 -3.753906 7.378906 -6.25 C 7.402344 -6.335938 7.421875 -6.398438 7.421875 -6.441406 C 7.421875 -6.613281 7.335938 -6.738281 7.1875 -6.824219 C 7.144531 -6.847656 7.082031 -6.867188 6.996094 -6.867188 C 6.824219 -6.867188 6.699219 -6.804688 6.613281 -6.65625 C 5.929688 -5.289062 4.671875 -3.710938 4.050781 -3.710938 C 3.816406 -3.710938 3.691406 -3.902344 3.691406 -4.480469 C 3.691406 -4.757812 3.710938 -5.097656 3.796875 -5.523438 C 3.859375 -5.972656 3.945312 -6.421875 4.09375 -6.824219 C 4.203125 -7.144531 4.011719 -7.421875 3.691406 -7.421875 C 3.539062 -7.421875 3.414062 -7.335938 3.304688 -7.167969 C 2.792969 -6.183594 1.960938 -4.5625 1.085938 -3.925781 C 0.894531 -3.773438 0.746094 -3.710938 0.597656 -3.710938 C 0.363281 -3.710938 0.257812 -3.882812 0.257812 -4.246094 C 0.257812 -5.355469 1.515625 -7.828125 3.796875 -7.828125 C 4.03125 -7.828125 4.222656 -8.019531 4.222656 -8.253906 C 4.222656 -8.488281 4.03125 -8.679688 3.796875 -8.679688 C 1.128906 -8.679688 -0.574219 -5.972656 -0.574219 -4.246094 C -0.574219 -3.710938 -0.40625 -3.261719 -0.0625 -3.027344 Z M -0.0625 -3.027344 "/></g></g></g><g fill="#000000" fill-opacity="1"><g transform="translate(41.900387, 27.795958)"><g><path d="M 0.425781 -2.859375 C 0.617188 -2.859375 0.746094 -2.945312 0.808594 -3.136719 C 1.601562 -5.355469 2.539062 -7.679688 3.027344 -7.679688 C 3.113281 -7.679688 3.179688 -7.613281 3.242188 -7.464844 C 3.304688 -7.273438 3.347656 -7.015625 3.347656 -6.699219 C 3.347656 -5.90625 3.199219 -4.90625 4.117188 -4.328125 C 4.351562 -4.179688 4.605469 -4.09375 4.925781 -4.09375 C 6.058594 -4.09375 7.144531 -5.203125 7.785156 -6.25 C 7.828125 -6.3125 7.847656 -6.378906 7.847656 -6.460938 C 7.847656 -6.632812 7.785156 -6.761719 7.636719 -6.824219 C 7.570312 -6.867188 7.488281 -6.890625 7.402344 -6.890625 C 7.25 -6.890625 7.125 -6.824219 7.058594 -6.675781 C 6.65625 -5.972656 5.714844 -4.949219 4.96875 -4.949219 C 4.820312 -4.949219 4.691406 -4.992188 4.585938 -5.054688 C 4.09375 -5.375 4.203125 -6.015625 4.203125 -6.71875 C 4.203125 -7.082031 4.179688 -7.464844 4.03125 -7.804688 C 3.839844 -8.296875 3.433594 -8.554688 2.984375 -8.554688 C 2.089844 -8.554688 1.601562 -7.421875 1.046875 -6.078125 C 1.128906 -6.910156 1.195312 -7.613281 1.28125 -8.210938 C 1.34375 -8.445312 1.152344 -8.679688 0.917969 -8.703125 C 0.683594 -8.765625 0.46875 -8.574219 0.449219 -8.339844 C 0.214844 -6.699219 0.0625 -4.671875 0 -3.304688 C -0.0195312 -3.070312 0.171875 -2.859375 0.425781 -2.859375 Z M 0.425781 -2.859375 "/></g></g></g><g fill="#000000" fill-opacity="1"><g transform="translate(48.703391, 27.795958)"><g/></g></g><g fill="#000000" fill-opacity="1"><g transform="translate(52.968602, 27.795958)"><g><path d="M 1.152344 0 C 1.386719 0 1.558594 -0.191406 1.558594 -0.425781 C 1.492188 -1.515625 1.621094 -3.328125 1.875 -5.375 C 3.773438 -6.015625 4.949219 -6.3125 6.421875 -6.546875 L 6.421875 -5.671875 C 6.421875 -4.289062 6.398438 -2.859375 6.335938 -1.429688 C 6.335938 -1.152344 6.460938 -1.003906 6.738281 -0.980469 C 6.972656 -0.980469 7.1875 -1.152344 7.1875 -1.386719 C 7.25 -2.773438 7.273438 -4.265625 7.273438 -5.738281 L 7.273438 -6.675781 L 8.316406 -6.804688 C 8.554688 -6.824219 8.679688 -6.972656 8.679688 -7.210938 L 8.679688 -7.273438 C 8.660156 -7.507812 8.488281 -7.65625 8.253906 -7.65625 L 8.210938 -7.65625 L 7.25 -7.527344 C 7.1875 -11.347656 7.144531 -14.566406 5.417969 -15.1875 C 5.203125 -15.25 5.035156 -15.292969 4.882812 -15.292969 C 2.472656 -15.292969 1.429688 -8.914062 1.085938 -6.035156 C 0.726562 -5.886719 0.320312 -5.757812 -0.128906 -5.609375 C -0.320312 -5.546875 -0.425781 -5.394531 -0.425781 -5.203125 C -0.425781 -5.140625 -0.425781 -5.097656 -0.40625 -5.078125 C -0.339844 -4.882812 -0.191406 -4.777344 0 -4.777344 L 0.0625 -4.777344 C 0.148438 -4.777344 0.296875 -4.839844 0.980469 -5.097656 C 0.746094 -3.136719 0.683594 -1.429688 0.703125 -0.40625 C 0.703125 -0.171875 0.894531 0 1.128906 0 Z M 2.003906 -6.3125 C 2.261719 -8.105469 3.242188 -14.417969 4.90625 -14.417969 C 5.394531 -14.417969 5.757812 -13.929688 5.992188 -13.097656 C 6.226562 -12.265625 6.335938 -10.089844 6.398438 -7.421875 C 4.863281 -7.1875 3.710938 -6.847656 2.003906 -6.3125 Z M 2.003906 -6.3125 "/></g></g></g><g fill="#000000" fill-opacity="1"><g transform="translate(62.074821, 27.795958)"><g><path d="M 0.425781 -2.859375 C 0.617188 -2.859375 0.746094 -2.945312 0.808594 -3.136719 C 1.601562 -5.355469 2.539062 -7.679688 3.027344 -7.679688 C 3.113281 -7.679688 3.179688 -7.613281 3.242188 -7.464844 C 3.304688 -7.273438 3.347656 -7.015625 3.347656 -6.699219 C 3.347656 -5.90625 3.199219 -4.90625 4.117188 -4.328125 C 4.351562 -4.179688 4.605469 -4.09375 4.925781 -4.09375 C 6.058594 -4.09375 7.144531 -5.203125 7.785156 -6.25 C 7.828125 -6.3125 7.847656 -6.378906 7.847656 -6.460938 C 7.847656 -6.632812 7.785156 -6.761719 7.636719 -6.824219 C 7.570312 -6.867188 7.488281 -6.890625 7.402344 -6.890625 C 7.25 -6.890625 7.125 -6.824219 7.058594 -6.675781 C 6.65625 -5.972656 5.714844 -4.949219 4.96875 -4.949219 C 4.820312 -4.949219 4.691406 -4.992188 4.585938 -5.054688 C 4.09375 -5.375 4.203125 -6.015625 4.203125 -6.71875 C 4.203125 -7.082031 4.179688 -7.464844 4.03125 -7.804688 C 3.839844 -8.296875 3.433594 -8.554688 2.984375 -8.554688 C 2.089844 -8.554688 1.601562 -7.421875 1.046875 -6.078125 C 1.128906 -6.910156 1.195312 -7.613281 1.28125 -8.210938 C 1.34375 -8.445312 1.152344 -8.679688 0.917969 -8.703125 C 0.683594 -8.765625 0.46875 -8.574219 0.449219 -8.339844 C 0.214844 -6.699219 0.0625 -4.671875 0 -3.304688 C -0.0195312 -3.070312 0.171875 -2.859375 0.425781 -2.859375 Z M 0.425781 -2.859375 "/></g></g></g><g fill="#000000" fill-opacity="1"><g transform="translate(68.877825, 27.795958)"><g><path d="M 1.429688 -2.625 C 2.558594 -2.625 3.371094 -4.09375 3.816406 -5.117188 C 3.925781 -4.03125 4.394531 -3.328125 5.140625 -3.328125 C 5.90625 -3.328125 6.933594 -4.09375 8.019531 -6.035156 C 8.039062 -6.078125 8.0625 -6.144531 8.0625 -6.25 C 8.0625 -6.421875 8 -6.546875 7.847656 -6.632812 C 7.804688 -6.65625 7.742188 -6.675781 7.636719 -6.675781 C 7.445312 -6.675781 7.335938 -6.613281 7.273438 -6.460938 C 6.207031 -4.542969 5.375 -4.050781 5.035156 -4.222656 C 4.714844 -4.371094 4.648438 -5.097656 4.648438 -5.886719 C 4.648438 -6.71875 4.734375 -7.570312 4.757812 -7.890625 C 4.757812 -8.125 4.5625 -8.339844 4.328125 -8.339844 C 4.117188 -8.339844 3.96875 -8.234375 3.902344 -8.019531 C 3.285156 -5.460938 2.132812 -3.457031 1.472656 -3.457031 C 1.152344 -3.457031 0.980469 -3.902344 0.960938 -4.777344 C 0.960938 -5.78125 1.128906 -6.933594 1.28125 -7.550781 C 1.324219 -7.828125 1.214844 -8 0.9375 -8.0625 C 0.660156 -8.105469 0.492188 -8 0.425781 -7.722656 C 0.277344 -6.953125 0.105469 -5.886719 0.105469 -4.925781 C 0.105469 -3.667969 0.40625 -2.625 1.429688 -2.625 Z M 1.429688 -2.625 "/></g></g></g><g fill="#000000" fill-opacity="1"><g transform="translate(75.979394, 27.795958)"><g><path d="M -0.0625 -3.027344 C 0.128906 -2.902344 0.339844 -2.835938 0.574219 -2.835938 C 1.363281 -2.835938 2.28125 -3.753906 2.773438 -4.542969 C 2.707031 -3.539062 3.179688 -2.835938 3.925781 -2.835938 C 4.777344 -2.835938 6.015625 -3.753906 7.378906 -6.25 C 7.402344 -6.335938 7.421875 -6.398438 7.421875 -6.441406 C 7.421875 -6.613281 7.335938 -6.738281 7.1875 -6.824219 C 7.144531 -6.847656 7.082031 -6.867188 6.996094 -6.867188 C 6.824219 -6.867188 6.699219 -6.804688 6.613281 -6.65625 C 5.929688 -5.289062 4.671875 -3.710938 4.050781 -3.710938 C 3.816406 -3.710938 3.691406 -3.902344 3.691406 -4.480469 C 3.691406 -4.757812 3.710938 -5.097656 3.796875 -5.523438 C 3.859375 -5.972656 3.945312 -6.421875 4.09375 -6.824219 C 4.203125 -7.144531 4.011719 -7.421875 3.691406 -7.421875 C 3.539062 -7.421875 3.414062 -7.335938 3.304688 -7.167969 C 2.792969 -6.183594 1.960938 -4.5625 1.085938 -3.925781 C 0.894531 -3.773438 0.746094 -3.710938 0.597656 -3.710938 C 0.363281 -3.710938 0.257812 -3.882812 0.257812 -4.246094 C 0.257812 -5.355469 1.515625 -7.828125 3.796875 -7.828125 C 4.03125 -7.828125 4.222656 -8.019531 4.222656 -8.253906 C 4.222656 -8.488281 4.03125 -8.679688 3.796875 -8.679688 C 1.128906 -8.679688 -0.574219 -5.972656 -0.574219 -4.246094 C -0.574219 -3.710938 -0.40625 -3.261719 -0.0625 -3.027344 Z M -0.0625 -3.027344 "/></g></g></g><g fill="#000000" fill-opacity="1"><g transform="translate(82.355879, 27.795958)"><g><path d="M 0.425781 -3.007812 C 0.660156 -3.007812 0.851562 -3.179688 0.851562 -3.414062 C 0.960938 -5.695312 3.179688 -8.210938 4.289062 -8 C 4.523438 -7.933594 4.714844 -8.082031 4.777344 -8.316406 C 4.839844 -8.554688 4.691406 -8.765625 4.457031 -8.832031 C 4.308594 -8.851562 4.203125 -8.871094 4.117188 -8.871094 C 2.921875 -8.871094 1.664062 -7.488281 1.046875 -6.460938 C 1.109375 -7.082031 1.128906 -7.722656 1.128906 -8.382812 C 1.128906 -8.617188 0.9375 -8.808594 0.703125 -8.808594 C 0.46875 -8.808594 0.277344 -8.617188 0.277344 -8.382812 C 0.257812 -6.761719 0.0195312 -5.117188 0 -3.433594 C 0 -3.199219 0.191406 -3.027344 0.425781 -3.007812 Z M 0.425781 -3.007812 "/></g></g></g></svg>